<svg width="173" height="46" viewBox="0 0 173 46" fill="none" xmlns="http://www.w3.org/2000/svg">
<path d="M21.5917 18.176C24.621 19.072 27.0743 20.6507 28.9517 22.912C30.8717 25.1307 31.8317 27.8187 31.8317 30.976C31.8317 35.584 30.2743 39.1893 27.1597 41.792C24.0877 44.3947 20.3117 45.696 15.8317 45.696C12.333 45.696 9.19701 44.9067 6.42368 43.328C3.69301 41.7067 1.70901 39.3387 0.47168 36.224L8.02368 31.872C9.13301 35.328 11.7357 37.056 15.8317 37.056C18.093 37.056 19.8423 36.5227 21.0797 35.456C22.3597 34.3467 22.9997 32.8533 22.9997 30.976C22.9997 29.1413 22.3597 27.6693 21.0797 26.56C19.8423 25.4507 18.093 24.896 15.8317 24.896H13.9117L10.5197 19.776L19.3517 8.256H1.81568V0H29.9757V7.296L21.5917 18.176Z" fill="#8D86C9"/>
<path d="M55.104 12.732C56.0373 13.2267 56.504 14.0014 56.504 15.056C56.504 15.9334 56.1727 16.6427 55.51 17.184C54.8473 17.7254 53.9933 17.996 52.948 17.996C51.128 17.996 49.91 17.226 49.294 15.686L50.96 14.748C51.2587 15.7 51.9213 16.176 52.948 16.176C53.48 16.176 53.886 16.064 54.166 15.84C54.446 15.616 54.586 15.3127 54.586 14.93C54.586 14.5474 54.446 14.244 54.166 14.02C53.8953 13.796 53.5033 13.684 52.99 13.684H51.772V11.962H52.696C53.1813 11.962 53.5593 11.8594 53.83 11.654C54.1007 11.4394 54.236 11.15 54.236 10.786C54.236 10.422 54.1193 10.1374 53.886 9.93205C53.6527 9.71738 53.3073 9.61005 52.85 9.61005C52.01 9.61005 51.422 10.0207 51.086 10.842L49.448 9.89005C50.1107 8.49938 51.2447 7.80405 52.85 7.80405C53.8207 7.80405 54.614 8.06538 55.23 8.58805C55.846 9.11071 56.154 9.80138 56.154 10.66C56.154 11.5374 55.804 12.228 55.104 12.732ZM62.7277 10.8H64.0717V17.8H62.3077V13.824L59.0177 17.8H57.6737V10.8H59.4377V14.776L62.7277 10.8ZM73.0064 10.8V17.8H71.2564V13.712L69.4784 16.512H69.2544L67.4624 13.684V17.8H65.7264V10.8H67.5044L69.3664 13.74L71.2284 10.8H73.0064ZM79.2461 10.8H81.0521V17.8H79.2461V15.14H76.4601V17.8H74.6541V10.8H76.4601V13.446H79.2461V10.8ZM87.7609 10.8H89.1049V17.8H87.3409V13.824L84.0509 17.8H82.7069V10.8H84.4709V14.776L87.7609 10.8ZM97.2136 17.8H95.1276L93.6156 15.672L92.0896 17.8H90.0036L92.5656 14.23L90.1156 10.8H92.2016L93.6156 12.774L95.0296 10.8H97.1016L94.6516 14.216L97.2136 17.8ZM108.069 17.8H105.969L103.421 14.622V17.8H101.615V10.8H103.421V13.88L105.829 10.8H107.985L105.171 14.258L108.069 17.8ZM114.429 16.932C113.71 17.6414 112.833 17.996 111.797 17.996C110.761 17.996 109.883 17.6414 109.165 16.932C108.455 16.2134 108.101 15.336 108.101 14.3C108.101 13.264 108.455 12.3914 109.165 11.682C109.883 10.9634 110.761 10.604 111.797 10.604C112.833 10.604 113.71 10.9634 114.429 11.682C115.147 12.3914 115.507 13.264 115.507 14.3C115.507 15.336 115.147 16.2134 114.429 16.932ZM110.439 15.686C110.803 16.05 111.255 16.232 111.797 16.232C112.338 16.232 112.791 16.05 113.155 15.686C113.519 15.322 113.701 14.86 113.701 14.3C113.701 13.74 113.519 13.278 113.155 12.914C112.791 12.55 112.338 12.368 111.797 12.368C111.255 12.368 110.803 12.55 110.439 12.914C110.084 13.278 109.907 13.74 109.907 14.3C109.907 14.86 110.084 15.322 110.439 15.686ZM120.851 10.604C121.794 10.604 122.597 10.9634 123.259 11.682C123.931 12.3914 124.267 13.264 124.267 14.3C124.267 15.336 123.931 16.2134 123.259 16.932C122.597 17.6414 121.794 17.996 120.851 17.996C119.871 17.996 119.115 17.6554 118.583 16.974V20.6H116.777V10.8H118.583V11.626C119.115 10.9447 119.871 10.604 120.851 10.604ZM119.129 15.728C119.493 16.092 119.955 16.274 120.515 16.274C121.075 16.274 121.537 16.092 121.901 15.728C122.275 15.3547 122.461 14.8787 122.461 14.3C122.461 13.7214 122.275 13.25 121.901 12.886C121.537 12.5127 121.075 12.326 120.515 12.326C119.955 12.326 119.493 12.5127 119.129 12.886C118.765 13.25 118.583 13.7214 118.583 14.3C118.583 14.8787 118.765 15.3547 119.129 15.728ZM130.783 10.8V12.536H128.599V17.8H126.793V12.536H124.581V10.8H130.783ZM136.794 10.8H138.6V17.8H136.794V16.974C136.253 17.6554 135.492 17.996 134.512 17.996C133.579 17.996 132.776 17.6414 132.104 16.932C131.442 16.2134 131.11 15.336 131.11 14.3C131.11 13.264 131.442 12.3914 132.104 11.682C132.776 10.9634 133.579 10.604 134.512 10.604C135.492 10.604 136.253 10.9447 136.794 11.626V10.8ZM133.462 15.728C133.826 16.092 134.288 16.274 134.848 16.274C135.408 16.274 135.87 16.092 136.234 15.728C136.608 15.3547 136.794 14.8787 136.794 14.3C136.794 13.7214 136.608 13.25 136.234 12.886C135.87 12.5127 135.408 12.326 134.848 12.326C134.288 12.326 133.826 12.5127 133.462 12.886C133.098 13.25 132.916 13.7214 132.916 14.3C132.916 14.8787 133.098 15.3547 133.462 15.728ZM147.07 17.996C146.015 17.996 145.133 17.6414 144.424 16.932C143.724 16.2227 143.374 15.3454 143.374 14.3C143.374 13.2547 143.724 12.3774 144.424 11.668C145.133 10.9587 146.015 10.604 147.07 10.604C147.751 10.604 148.372 10.7674 148.932 11.094C149.492 11.4207 149.917 11.8594 150.206 12.41L148.652 13.32C148.512 13.0307 148.297 12.802 148.008 12.634C147.728 12.466 147.411 12.382 147.056 12.382C146.515 12.382 146.067 12.564 145.712 12.928C145.357 13.2827 145.18 13.74 145.18 14.3C145.18 14.8507 145.357 15.308 145.712 15.672C146.067 16.0267 146.515 16.204 147.056 16.204C147.42 16.204 147.742 16.1247 148.022 15.966C148.311 15.798 148.526 15.5694 148.666 15.28L150.234 16.176C149.926 16.7267 149.492 17.17 148.932 17.506C148.372 17.8327 147.751 17.996 147.07 17.996ZM56.224 30.8V37.8H54.418V32.494H51.632V37.8H49.826V30.8H56.224ZM63.8427 36.932C63.1241 37.6414 62.2467 37.996 61.2107 37.996C60.1747 37.996 59.2974 37.6414 58.5787 36.932C57.8694 36.2134 57.5147 35.336 57.5147 34.3C57.5147 33.264 57.8694 32.3914 58.5787 31.682C59.2974 30.9634 60.1747 30.604 61.2107 30.604C62.2467 30.604 63.1241 30.9634 63.8427 31.682C64.5614 32.3914 64.9207 33.264 64.9207 34.3C64.9207 35.336 64.5614 36.2134 63.8427 36.932ZM59.8527 35.686C60.2167 36.05 60.6694 36.232 61.2107 36.232C61.7521 36.232 62.2047 36.05 62.5687 35.686C62.9327 35.322 63.1147 34.86 63.1147 34.3C63.1147 33.74 62.9327 33.278 62.5687 32.914C62.2047 32.55 61.7521 32.368 61.2107 32.368C60.6694 32.368 60.2167 32.55 59.8527 32.914C59.4981 33.278 59.3207 33.74 59.3207 34.3C59.3207 34.86 59.4981 35.322 59.8527 35.686ZM72.6452 37.8H70.5452L67.9972 34.622V37.8H66.1912V30.8H67.9972V33.88L70.4052 30.8H72.5612L69.7472 34.258L72.6452 37.8ZM77.6207 30.604C78.5634 30.604 79.366 30.9634 80.0287 31.682C80.7007 32.3914 81.0367 33.264 81.0367 34.3C81.0367 35.336 80.7007 36.2134 80.0287 36.932C79.366 37.6414 78.5634 37.996 77.6207 37.996C76.6407 37.996 75.8847 37.6554 75.3527 36.974V40.6H73.5467V30.8H75.3527V31.626C75.8847 30.9447 76.6407 30.604 77.6207 30.604ZM75.8987 35.728C76.2627 36.092 76.7247 36.274 77.2847 36.274C77.8447 36.274 78.3067 36.092 78.6707 35.728C79.044 35.3547 79.2307 34.8787 79.2307 34.3C79.2307 33.7214 79.044 33.25 78.6707 32.886C78.3067 32.5127 77.8447 32.326 77.2847 32.326C76.7247 32.326 76.2627 32.5127 75.8987 32.886C75.5347 33.25 75.3527 33.7214 75.3527 34.3C75.3527 34.8787 75.5347 35.3547 75.8987 35.728ZM85.4744 33.04C86.2677 33.04 86.907 33.2594 87.3924 33.698C87.8777 34.1274 88.1204 34.7014 88.1204 35.42C88.1204 36.1387 87.8777 36.7174 87.3924 37.156C86.907 37.5854 86.2677 37.8 85.4744 37.8H82.3104V30.8H84.1164V33.04H85.4744ZM88.8904 30.8H90.6964V37.8H88.8904V30.8ZM85.4884 36.204C85.7404 36.204 85.9457 36.134 86.1044 35.994C86.2724 35.8447 86.3564 35.6534 86.3564 35.42C86.3564 35.1867 86.2724 34.9954 86.1044 34.846C85.9457 34.6967 85.7404 34.622 85.4884 34.622H84.1164V36.204H85.4884ZM97.8615 30.8V32.536H95.6775V37.8H93.8715V32.536H91.6595V30.8H97.8615ZM103.88 30.8H105.224V37.8H103.46V33.824L100.17 37.8H98.826V30.8H100.59V34.776L103.88 30.8ZM108.405 35.042C108.647 35.9194 109.305 36.358 110.379 36.358C111.069 36.358 111.592 36.1247 111.947 35.658L113.403 36.498C112.712 37.4967 111.695 37.996 110.351 37.996C109.193 37.996 108.265 37.646 107.565 36.946C106.865 36.246 106.515 35.364 106.515 34.3C106.515 33.2454 106.86 32.368 107.551 31.668C108.241 30.9587 109.128 30.604 110.211 30.604C111.237 30.604 112.082 30.9587 112.745 31.668C113.417 32.3774 113.753 33.2547 113.753 34.3C113.753 34.5334 113.729 34.7807 113.683 35.042H108.405ZM108.377 33.642H111.947C111.844 33.166 111.629 32.8114 111.303 32.578C110.985 32.3447 110.621 32.228 110.211 32.228C109.725 32.228 109.324 32.354 109.007 32.606C108.689 32.8487 108.479 33.194 108.377 33.642ZM122.294 30.8V37.8H120.544V33.712L118.766 36.512H118.542L116.75 33.684V37.8H115.014V30.8H116.792L118.654 33.74L120.516 30.8H122.294ZM130.703 30.842L129.163 33.474L130.703 36.092H129.037L127.497 33.474L129.037 30.842H130.703ZM133.363 30.842L131.823 33.474L133.363 36.092H131.697L130.157 33.474L131.697 30.842H133.363ZM138.962 30.604C139.727 30.604 140.357 30.8607 140.852 31.374C141.356 31.8874 141.608 32.5967 141.608 33.502V37.8H139.802V33.726C139.802 33.2594 139.676 32.9047 139.424 32.662C139.172 32.41 138.836 32.284 138.416 32.284C137.949 32.284 137.576 32.4287 137.296 32.718C137.016 33.0074 136.876 33.4414 136.876 34.02V37.8H135.07V28H136.876V31.584C137.315 30.9307 138.01 30.604 138.962 30.604ZM148.47 30.8H150.276V37.8H148.47V36.974C147.929 37.6554 147.168 37.996 146.188 37.996C145.255 37.996 144.452 37.6414 143.78 36.932C143.118 36.2134 142.786 35.336 142.786 34.3C142.786 33.264 143.118 32.3914 143.78 31.682C144.452 30.9634 145.255 30.604 146.188 30.604C147.168 30.604 147.929 30.9447 148.47 31.626V30.8ZM145.138 35.728C145.502 36.092 145.964 36.274 146.524 36.274C147.084 36.274 147.546 36.092 147.91 35.728C148.284 35.3547 148.47 34.8787 148.47 34.3C148.47 33.7214 148.284 33.25 147.91 32.886C147.546 32.5127 147.084 32.326 146.524 32.326C145.964 32.326 145.502 32.5127 145.138 32.886C144.774 33.25 144.592 33.7214 144.592 34.3C144.592 34.8787 144.774 35.3547 145.138 35.728ZM153.72 32.004C153.888 31.556 154.163 31.22 154.546 30.996C154.938 30.772 155.372 30.66 155.848 30.66V32.676C155.297 32.6107 154.803 32.7227 154.364 33.012C153.935 33.3014 153.72 33.782 153.72 34.454V37.8H151.914V30.8H153.72V32.004ZM161.95 28H163.756V37.8H161.95V36.974C161.418 37.6554 160.662 37.996 159.682 37.996C158.74 37.996 157.932 37.6414 157.26 36.932C156.598 36.2134 156.266 35.336 156.266 34.3C156.266 33.264 156.598 32.3914 157.26 31.682C157.932 30.9634 158.74 30.604 159.682 30.604C160.662 30.604 161.418 30.9447 161.95 31.626V28ZM158.618 35.728C158.992 36.092 159.458 36.274 160.018 36.274C160.578 36.274 161.04 36.092 161.404 35.728C161.768 35.3547 161.95 34.8787 161.95 34.3C161.95 33.7214 161.768 33.25 161.404 32.886C161.04 32.5127 160.578 32.326 160.018 32.326C159.458 32.326 158.992 32.5127 158.618 32.886C158.254 33.25 158.072 33.7214 158.072 34.3C158.072 34.8787 158.254 35.3547 158.618 35.728ZM167.13 30.842L168.67 33.474L167.13 36.092H165.464L167.004 33.474L165.464 30.842H167.13ZM169.79 30.842L171.33 33.474L169.79 36.092H168.124L169.664 33.474L168.124 30.842H169.79Z" fill="#333333"/>
</svg>
