<svg width="234" height="45" viewBox="0 0 234 45" fill="none" xmlns="http://www.w3.org/2000/svg">
<path d="M35.2238 28.992V37.184H30.4238V44.8H21.5278V37.184H0.34375V28.992L15.2558 0H24.7278L9.87975 28.992H21.5278V18.368H30.4238V28.992H35.2238Z" fill="#8D86C9"/>
<path d="M58.104 12.732C59.0373 13.2267 59.504 14.0014 59.504 15.056C59.504 15.9334 59.1727 16.6427 58.51 17.184C57.8473 17.7254 56.9933 17.996 55.948 17.996C54.128 17.996 52.91 17.226 52.294 15.686L53.96 14.748C54.2587 15.7 54.9213 16.176 55.948 16.176C56.48 16.176 56.886 16.064 57.166 15.84C57.446 15.616 57.586 15.3127 57.586 14.93C57.586 14.5474 57.446 14.244 57.166 14.02C56.8953 13.796 56.5033 13.684 55.99 13.684H54.772V11.962H55.696C56.1813 11.962 56.5593 11.8594 56.83 11.654C57.1007 11.4394 57.236 11.15 57.236 10.786C57.236 10.422 57.1193 10.1374 56.886 9.93205C56.6527 9.71738 56.3073 9.61005 55.85 9.61005C55.01 9.61005 54.422 10.0207 54.086 10.842L52.448 9.89005C53.1107 8.49938 54.2447 7.80405 55.85 7.80405C56.8207 7.80405 57.614 8.06538 58.23 8.58805C58.846 9.11071 59.154 9.80138 59.154 10.66C59.154 11.5374 58.804 12.228 58.104 12.732ZM65.7277 10.8H67.0717V17.8H65.3077V13.824L62.0177 17.8H60.6737V10.8H62.4377V14.776L65.7277 10.8ZM76.0064 10.8V17.8H74.2564V13.712L72.4784 16.512H72.2544L70.4624 13.684V17.8H68.7264V10.8H70.5044L72.3664 13.74L74.2284 10.8H76.0064ZM82.2461 10.8H84.0521V17.8H82.2461V15.14H79.4601V17.8H77.6541V10.8H79.4601V13.446H82.2461V10.8ZM90.7609 10.8H92.1049V17.8H90.3409V13.824L87.0509 17.8H85.7069V10.8H87.4709V14.776L90.7609 10.8ZM100.214 17.8H98.1276L96.6156 15.672L95.0896 17.8H93.0036L95.5656 14.23L93.1156 10.8H95.2016L96.6156 12.774L98.0296 10.8H100.102L97.6516 14.216L100.214 17.8ZM111.069 17.8H108.969L106.421 14.622V17.8H104.615V10.8H106.421V13.88L108.829 10.8H110.985L108.171 14.258L111.069 17.8ZM117.429 16.932C116.71 17.6414 115.833 17.996 114.797 17.996C113.761 17.996 112.883 17.6414 112.165 16.932C111.455 16.2134 111.101 15.336 111.101 14.3C111.101 13.264 111.455 12.3914 112.165 11.682C112.883 10.9634 113.761 10.604 114.797 10.604C115.833 10.604 116.71 10.9634 117.429 11.682C118.147 12.3914 118.507 13.264 118.507 14.3C118.507 15.336 118.147 16.2134 117.429 16.932ZM113.439 15.686C113.803 16.05 114.255 16.232 114.797 16.232C115.338 16.232 115.791 16.05 116.155 15.686C116.519 15.322 116.701 14.86 116.701 14.3C116.701 13.74 116.519 13.278 116.155 12.914C115.791 12.55 115.338 12.368 114.797 12.368C114.255 12.368 113.803 12.55 113.439 12.914C113.084 13.278 112.907 13.74 112.907 14.3C112.907 14.86 113.084 15.322 113.439 15.686ZM123.851 10.604C124.794 10.604 125.597 10.9634 126.259 11.682C126.931 12.3914 127.267 13.264 127.267 14.3C127.267 15.336 126.931 16.2134 126.259 16.932C125.597 17.6414 124.794 17.996 123.851 17.996C122.871 17.996 122.115 17.6554 121.583 16.974V20.6H119.777V10.8H121.583V11.626C122.115 10.9447 122.871 10.604 123.851 10.604ZM122.129 15.728C122.493 16.092 122.955 16.274 123.515 16.274C124.075 16.274 124.537 16.092 124.901 15.728C125.275 15.3547 125.461 14.8787 125.461 14.3C125.461 13.7214 125.275 13.25 124.901 12.886C124.537 12.5127 124.075 12.326 123.515 12.326C122.955 12.326 122.493 12.5127 122.129 12.886C121.765 13.25 121.583 13.7214 121.583 14.3C121.583 14.8787 121.765 15.3547 122.129 15.728ZM133.783 10.8V12.536H131.599V17.8H129.793V12.536H127.581V10.8H133.783ZM139.794 10.8H141.6V17.8H139.794V16.974C139.253 17.6554 138.492 17.996 137.512 17.996C136.579 17.996 135.776 17.6414 135.104 16.932C134.442 16.2134 134.11 15.336 134.11 14.3C134.11 13.264 134.442 12.3914 135.104 11.682C135.776 10.9634 136.579 10.604 137.512 10.604C138.492 10.604 139.253 10.9447 139.794 11.626V10.8ZM136.462 15.728C136.826 16.092 137.288 16.274 137.848 16.274C138.408 16.274 138.87 16.092 139.234 15.728C139.608 15.3547 139.794 14.8787 139.794 14.3C139.794 13.7214 139.608 13.25 139.234 12.886C138.87 12.5127 138.408 12.326 137.848 12.326C137.288 12.326 136.826 12.5127 136.462 12.886C136.098 13.25 135.916 13.7214 135.916 14.3C135.916 14.8787 136.098 15.3547 136.462 15.728ZM150.07 17.996C149.015 17.996 148.133 17.6414 147.424 16.932C146.724 16.2227 146.374 15.3454 146.374 14.3C146.374 13.2547 146.724 12.3774 147.424 11.668C148.133 10.9587 149.015 10.604 150.07 10.604C150.751 10.604 151.372 10.7674 151.932 11.094C152.492 11.4207 152.917 11.8594 153.206 12.41L151.652 13.32C151.512 13.0307 151.297 12.802 151.008 12.634C150.728 12.466 150.411 12.382 150.056 12.382C149.515 12.382 149.067 12.564 148.712 12.928C148.357 13.2827 148.18 13.74 148.18 14.3C148.18 14.8507 148.357 15.308 148.712 15.672C149.067 16.0267 149.515 16.204 150.056 16.204C150.42 16.204 150.742 16.1247 151.022 15.966C151.311 15.798 151.526 15.5694 151.666 15.28L153.234 16.176C152.926 16.7267 152.492 17.17 151.932 17.506C151.372 17.8327 150.751 17.996 150.07 17.996ZM164.142 10.8V17.8H162.336V12.494H159.55V17.8H157.744V10.8H164.142ZM171.761 16.932C171.042 17.6414 170.165 17.996 169.129 17.996C168.093 17.996 167.215 17.6414 166.497 16.932C165.787 16.2134 165.433 15.336 165.433 14.3C165.433 13.264 165.787 12.3914 166.497 11.682C167.215 10.9634 168.093 10.604 169.129 10.604C170.165 10.604 171.042 10.9634 171.761 11.682C172.479 12.3914 172.839 13.264 172.839 14.3C172.839 15.336 172.479 16.2134 171.761 16.932ZM167.771 15.686C168.135 16.05 168.587 16.232 169.129 16.232C169.67 16.232 170.123 16.05 170.487 15.686C170.851 15.322 171.033 14.86 171.033 14.3C171.033 13.74 170.851 13.278 170.487 12.914C170.123 12.55 169.67 12.368 169.129 12.368C168.587 12.368 168.135 12.55 167.771 12.914C167.416 13.278 167.239 13.74 167.239 14.3C167.239 14.86 167.416 15.322 167.771 15.686ZM180.563 17.8H178.463L175.915 14.622V17.8H174.109V10.8H175.915V13.88L178.323 10.8H180.479L177.665 14.258L180.563 17.8ZM185.539 10.604C186.481 10.604 187.284 10.9634 187.947 11.682C188.619 12.3914 188.955 13.264 188.955 14.3C188.955 15.336 188.619 16.2134 187.947 16.932C187.284 17.6414 186.481 17.996 185.539 17.996C184.559 17.996 183.803 17.6554 183.271 16.974V20.6H181.465V10.8H183.271V11.626C183.803 10.9447 184.559 10.604 185.539 10.604ZM183.817 15.728C184.181 16.092 184.643 16.274 185.203 16.274C185.763 16.274 186.225 16.092 186.589 15.728C186.962 15.3547 187.149 14.8787 187.149 14.3C187.149 13.7214 186.962 13.25 186.589 12.886C186.225 12.5127 185.763 12.326 185.203 12.326C184.643 12.326 184.181 12.5127 183.817 12.886C183.453 13.25 183.271 13.7214 183.271 14.3C183.271 14.8787 183.453 15.3547 183.817 15.728ZM193.392 13.04C194.186 13.04 194.825 13.2594 195.31 13.698C195.796 14.1274 196.038 14.7014 196.038 15.42C196.038 16.1387 195.796 16.7174 195.31 17.156C194.825 17.5854 194.186 17.8 193.392 17.8H190.228V10.8H192.034V13.04H193.392ZM196.808 10.8H198.614V17.8H196.808V10.8ZM193.406 16.204C193.658 16.204 193.864 16.134 194.022 15.994C194.19 15.8447 194.274 15.6534 194.274 15.42C194.274 15.1867 194.19 14.9954 194.022 14.846C193.864 14.6967 193.658 14.622 193.406 14.622H192.034V16.204H193.406ZM205.78 10.8V12.536H203.596V17.8H201.79V12.536H199.578V10.8H205.78ZM211.798 10.8H213.142V17.8H211.378V13.824L208.088 17.8H206.744V10.8H208.508V14.776L211.798 10.8ZM216.323 15.042C216.565 15.9194 217.223 16.358 218.297 16.358C218.987 16.358 219.51 16.1247 219.865 15.658L221.321 16.498C220.63 17.4967 219.613 17.996 218.269 17.996C217.111 17.996 216.183 17.646 215.483 16.946C214.783 16.246 214.433 15.364 214.433 14.3C214.433 13.2454 214.778 12.368 215.469 11.668C216.159 10.9587 217.046 10.604 218.129 10.604C219.155 10.604 220 10.9587 220.663 11.668C221.335 12.3774 221.671 13.2547 221.671 14.3C221.671 14.5334 221.647 14.7807 221.601 15.042H216.323ZM216.295 13.642H219.865C219.762 13.166 219.547 12.8114 219.221 12.578C218.903 12.3447 218.539 12.228 218.129 12.228C217.643 12.228 217.242 12.354 216.925 12.606C216.607 12.8487 216.397 13.194 216.295 13.642ZM230.211 10.8V17.8H228.461V13.712L226.683 16.512H226.459L224.667 13.684V17.8H222.931V10.8H224.709L226.571 13.74L228.433 10.8H230.211ZM56.088 30.842L54.548 33.474L56.088 36.092H54.422L52.882 33.474L54.422 30.842H56.088ZM58.748 30.842L57.208 33.474L58.748 36.092H57.082L55.542 33.474L57.082 30.842H58.748ZM65.5089 30.8H66.8529V37.8H65.0889V33.824L61.7989 37.8H60.4549V30.8H62.2189V34.776L65.5089 30.8ZM71.8396 37.996C70.785 37.996 69.903 37.6414 69.1936 36.932C68.4936 36.2227 68.1436 35.3454 68.1436 34.3C68.1436 33.2547 68.4936 32.3774 69.1936 31.668C69.903 30.9587 70.785 30.604 71.8396 30.604C72.521 30.604 73.1416 30.7674 73.7016 31.094C74.2616 31.4207 74.6863 31.8594 74.9756 32.41L73.4216 33.32C73.2816 33.0307 73.067 32.802 72.7776 32.634C72.4976 32.466 72.1803 32.382 71.8256 32.382C71.2843 32.382 70.8363 32.564 70.4816 32.928C70.127 33.2827 69.9496 33.74 69.9496 34.3C69.9496 34.8507 70.127 35.308 70.4816 35.672C70.8363 36.0267 71.2843 36.204 71.8256 36.204C72.1896 36.204 72.5116 36.1247 72.7916 35.966C73.081 35.798 73.2956 35.5694 73.4356 35.28L75.0036 36.176C74.6956 36.7267 74.2616 37.17 73.7016 37.506C73.1416 37.8327 72.521 37.996 71.8396 37.996ZM82.4675 37.8H80.3675L77.8195 34.622V37.8H76.0135V30.8H77.8195V33.88L80.2275 30.8H82.3835L79.5695 34.258L82.4675 37.8ZM87.8646 30.8H89.7966L87.2486 37.8C86.5393 39.7694 85.3073 40.7027 83.5526 40.6V38.92C84.0286 38.9294 84.4019 38.8407 84.6726 38.654C84.9526 38.4674 85.1766 38.1547 85.3446 37.716L82.5166 30.8H84.4346L86.3106 35.504L87.8646 30.8ZM93.7146 37.996C92.66 37.996 91.778 37.6414 91.0686 36.932C90.3686 36.2227 90.0186 35.3454 90.0186 34.3C90.0186 33.2547 90.3686 32.3774 91.0686 31.668C91.778 30.9587 92.66 30.604 93.7146 30.604C94.396 30.604 95.0166 30.7674 95.5766 31.094C96.1366 31.4207 96.5613 31.8594 96.8506 32.41L95.2966 33.32C95.1566 33.0307 94.942 32.802 94.6526 32.634C94.3726 32.466 94.0553 32.382 93.7006 32.382C93.1593 32.382 92.7113 32.564 92.3566 32.928C92.002 33.2827 91.8246 33.74 91.8246 34.3C91.8246 34.8507 92.002 35.308 92.3566 35.672C92.7113 36.0267 93.1593 36.204 93.7006 36.204C94.0646 36.204 94.3866 36.1247 94.6666 35.966C94.956 35.798 95.1706 35.5694 95.3106 35.28L96.8786 36.176C96.5706 36.7267 96.1366 37.17 95.5766 37.506C95.0166 37.8327 94.396 37.996 93.7146 37.996ZM101.056 37.996C100.002 37.996 99.1198 37.6414 98.4104 36.932C97.7104 36.2227 97.3604 35.3454 97.3604 34.3C97.3604 33.2547 97.7104 32.3774 98.4104 31.668C99.1198 30.9587 100.002 30.604 101.056 30.604C101.738 30.604 102.358 30.7674 102.918 31.094C103.478 31.4207 103.903 31.8594 104.192 32.41L102.638 33.32C102.498 33.0307 102.284 32.802 101.994 32.634C101.714 32.466 101.397 32.382 101.042 32.382C100.501 32.382 100.053 32.564 99.6984 32.928C99.3438 33.2827 99.1664 33.74 99.1664 34.3C99.1664 34.8507 99.3438 35.308 99.6984 35.672C100.053 36.0267 100.501 36.204 101.042 36.204C101.406 36.204 101.728 36.1247 102.008 35.966C102.298 35.798 102.512 35.5694 102.652 35.28L104.22 36.176C103.912 36.7267 103.478 37.17 102.918 37.506C102.358 37.8327 101.738 37.996 101.056 37.996ZM110.651 30.8V32.536H108.467V37.8H106.661V32.536H104.449V30.8H110.651ZM116.655 34.216C117.308 34.5334 117.635 35.0654 117.635 35.812C117.635 36.4 117.43 36.8807 117.019 37.254C116.618 37.618 116.044 37.8 115.297 37.8H111.615V30.8H115.017C115.754 30.8 116.324 30.982 116.725 31.346C117.136 31.71 117.341 32.186 117.341 32.774C117.341 33.39 117.112 33.8707 116.655 34.216ZM114.849 32.284H113.309V33.544H114.849C115.362 33.544 115.619 33.334 115.619 32.914C115.619 32.494 115.362 32.284 114.849 32.284ZM115.087 36.274C115.61 36.274 115.871 36.05 115.871 35.602C115.871 35.406 115.801 35.252 115.661 35.14C115.521 35.028 115.33 34.972 115.087 34.972H113.309V36.274H115.087ZM120.291 35.042C120.534 35.9194 121.192 36.358 122.265 36.358C122.956 36.358 123.479 36.1247 123.833 35.658L125.289 36.498C124.599 37.4967 123.581 37.996 122.237 37.996C121.08 37.996 120.151 37.646 119.451 36.946C118.751 36.246 118.401 35.364 118.401 34.3C118.401 33.2454 118.747 32.368 119.437 31.668C120.128 30.9587 121.015 30.604 122.097 30.604C123.124 30.604 123.969 30.9587 124.631 31.668C125.303 32.3774 125.639 33.2547 125.639 34.3C125.639 34.5334 125.616 34.7807 125.569 35.042H120.291ZM120.263 33.642H123.833C123.731 33.166 123.516 32.8114 123.189 32.578C122.872 32.3447 122.508 32.228 122.097 32.228C121.612 32.228 121.211 32.354 120.893 32.606C120.576 32.8487 120.366 33.194 120.263 33.642ZM131.492 30.8H133.298V37.8H131.492V35.14H128.706V37.8H126.9V30.8H128.706V33.446H131.492V30.8ZM139.545 30.8H141.351V37.8H139.545V35.14H136.759V37.8H134.953V30.8H136.759V33.446H139.545V30.8ZM148.326 30.8H150.132V37.8H148.326V36.974C147.784 37.6554 147.024 37.996 146.044 37.996C145.11 37.996 144.308 37.6414 143.636 36.932C142.973 36.2134 142.642 35.336 142.642 34.3C142.642 33.264 142.973 32.3914 143.636 31.682C144.308 30.9634 145.11 30.604 146.044 30.604C147.024 30.604 147.784 30.9447 148.326 31.626V30.8ZM144.994 35.728C145.358 36.092 145.82 36.274 146.38 36.274C146.94 36.274 147.402 36.092 147.766 35.728C148.139 35.3547 148.326 34.8787 148.326 34.3C148.326 33.7214 148.139 33.25 147.766 32.886C147.402 32.5127 146.94 32.326 146.38 32.326C145.82 32.326 145.358 32.5127 144.994 32.886C144.63 33.25 144.448 33.7214 144.448 34.3C144.448 34.8787 144.63 35.3547 144.994 35.728ZM157.383 30.8V37.8H155.619V35.616H154.989L153.379 37.8H151.293L153.043 35.406C152.595 35.2194 152.236 34.9254 151.965 34.524C151.704 34.1134 151.573 33.6747 151.573 33.208C151.573 32.5547 151.807 31.99 152.273 31.514C152.74 31.038 153.351 30.8 154.107 30.8H157.383ZM154.247 32.41C153.986 32.41 153.767 32.4894 153.589 32.648C153.421 32.7974 153.337 33.0027 153.337 33.264C153.337 33.516 153.421 33.7167 153.589 33.866C153.767 34.0154 153.986 34.09 154.247 34.09H155.619V32.41H154.247ZM168.045 30.8V32.536H165.861V37.8H164.055V32.536H161.843V30.8H168.045ZM173.084 30.604C174.026 30.604 174.829 30.9634 175.492 31.682C176.164 32.3914 176.5 33.264 176.5 34.3C176.5 35.336 176.164 36.2134 175.492 36.932C174.829 37.6414 174.026 37.996 173.084 37.996C172.104 37.996 171.348 37.6554 170.816 36.974V40.6H169.01V30.8H170.816V31.626C171.348 30.9447 172.104 30.604 173.084 30.604ZM171.362 35.728C171.726 36.092 172.188 36.274 172.748 36.274C173.308 36.274 173.77 36.092 174.134 35.728C174.507 35.3547 174.694 34.8787 174.694 34.3C174.694 33.7214 174.507 33.25 174.134 32.886C173.77 32.5127 173.308 32.326 172.748 32.326C172.188 32.326 171.726 32.5127 171.362 32.886C170.998 33.25 170.816 33.7214 170.816 34.3C170.816 34.8787 170.998 35.3547 171.362 35.728ZM183.093 30.8H184.899V37.8H183.093V36.974C182.552 37.6554 181.791 37.996 180.811 37.996C179.878 37.996 179.075 37.6414 178.403 36.932C177.741 36.2134 177.409 35.336 177.409 34.3C177.409 33.264 177.741 32.3914 178.403 31.682C179.075 30.9634 179.878 30.604 180.811 30.604C181.791 30.604 182.552 30.9447 183.093 31.626V30.8ZM179.761 35.728C180.125 36.092 180.587 36.274 181.147 36.274C181.707 36.274 182.169 36.092 182.533 35.728C182.907 35.3547 183.093 34.8787 183.093 34.3C183.093 33.7214 182.907 33.25 182.533 32.886C182.169 32.5127 181.707 32.326 181.147 32.326C180.587 32.326 180.125 32.5127 179.761 32.886C179.397 33.25 179.215 33.7214 179.215 34.3C179.215 34.8787 179.397 35.3547 179.761 35.728ZM191.577 34.216C192.23 34.5334 192.557 35.0654 192.557 35.812C192.557 36.4 192.352 36.8807 191.941 37.254C191.54 37.618 190.966 37.8 190.219 37.8H186.537V30.8H189.939C190.676 30.8 191.246 30.982 191.647 31.346C192.058 31.71 192.263 32.186 192.263 32.774C192.263 33.39 192.034 33.8707 191.577 34.216ZM189.771 32.284H188.231V33.544H189.771C190.284 33.544 190.541 33.334 190.541 32.914C190.541 32.494 190.284 32.284 189.771 32.284ZM190.009 36.274C190.532 36.274 190.793 36.05 190.793 35.602C190.793 35.406 190.723 35.252 190.583 35.14C190.443 35.028 190.252 34.972 190.009 34.972H188.231V36.274H190.009ZM199.007 30.8H200.813V37.8H199.007V36.974C198.466 37.6554 197.705 37.996 196.725 37.996C195.792 37.996 194.989 37.6414 194.317 36.932C193.655 36.2134 193.323 35.336 193.323 34.3C193.323 33.264 193.655 32.3914 194.317 31.682C194.989 30.9634 195.792 30.604 196.725 30.604C197.705 30.604 198.466 30.9447 199.007 31.626V30.8ZM195.675 35.728C196.039 36.092 196.501 36.274 197.061 36.274C197.621 36.274 198.083 36.092 198.447 35.728C198.821 35.3547 199.007 34.8787 199.007 34.3C199.007 33.7214 198.821 33.25 198.447 32.886C198.083 32.5127 197.621 32.326 197.061 32.326C196.501 32.326 196.039 32.5127 195.675 32.886C195.311 33.25 195.129 33.7214 195.129 34.3C195.129 34.8787 195.311 35.3547 195.675 35.728ZM204.173 30.842L205.713 33.474L204.173 36.092H202.507L204.047 33.474L202.507 30.842H204.173ZM206.833 30.842L208.373 33.474L206.833 36.092H205.167L206.707 33.474L205.167 30.842H206.833Z" fill="#333333"/>
</svg>
