<svg width="171" height="45" viewBox="0 0 171 45" fill="none" xmlns="http://www.w3.org/2000/svg">
<path d="M0.832031 0H29.76V7.488L14.592 44.8H5.24803L19.968 8.448H0.832031V0Z" fill="#8D86C9"/>
<path d="M47.154 17.8V16.008C47.7327 16.092 48.1667 15.9754 48.456 15.658C48.7453 15.3407 48.89 14.72 48.89 13.796V8.00005H55.554V17.8H53.636V9.84805H50.808V13.74C50.808 14.5894 50.7053 15.3034 50.5 15.882C50.2947 16.4607 50.01 16.89 49.646 17.17C49.2913 17.45 48.9087 17.6367 48.498 17.73C48.0967 17.8234 47.6487 17.8467 47.154 17.8ZM58.8129 15.042C59.0556 15.9194 59.7136 16.358 60.7869 16.358C61.4776 16.358 62.0003 16.1247 62.3549 15.658L63.8109 16.498C63.1203 17.4967 62.1029 17.996 60.7589 17.996C59.6016 17.996 58.6729 17.646 57.9729 16.946C57.2729 16.246 56.9229 15.364 56.9229 14.3C56.9229 13.2454 57.2683 12.368 57.9589 11.668C58.6496 10.9587 59.5363 10.604 60.6189 10.604C61.6456 10.604 62.4903 10.9587 63.1529 11.668C63.8249 12.3774 64.1609 13.2547 64.1609 14.3C64.1609 14.5334 64.1376 14.7807 64.0909 15.042H58.8129ZM58.7849 13.642H62.3549C62.2523 13.166 62.0376 12.8114 61.7109 12.578C61.3936 12.3447 61.0296 12.228 60.6189 12.228C60.1336 12.228 59.7323 12.354 59.4149 12.606C59.0976 12.8487 58.8876 13.194 58.7849 13.642ZM70.6643 10.8V12.536H68.4803V17.8H66.6743V12.536H64.4623V10.8H70.6643ZM76.2207 10.8H78.0267V17.8H76.2207V15.14H73.4347V17.8H71.6287V10.8H73.4347V13.446H76.2207V10.8ZM84.7355 10.8H86.0795V17.8H84.3155V13.824L81.0255 17.8H79.6815V10.8H81.4455V14.776L84.7355 10.8ZM94.1882 17.8H92.1022L90.5902 15.672L89.0642 17.8H86.9782L89.5402 14.23L87.0902 10.8H89.1762L90.5902 12.774L92.0042 10.8H94.0762L91.6262 14.216L94.1882 17.8ZM103.378 10.8V12.536H100.396V17.8H98.5897V10.8H103.378ZM108.42 10.604C109.362 10.604 110.165 10.9634 110.828 11.682C111.5 12.3914 111.836 13.264 111.836 14.3C111.836 15.336 111.5 16.2134 110.828 16.932C110.165 17.6414 109.362 17.996 108.42 17.996C107.44 17.996 106.684 17.6554 106.152 16.974V20.6H104.346V10.8H106.152V11.626C106.684 10.9447 107.44 10.604 108.42 10.604ZM106.698 15.728C107.062 16.092 107.524 16.274 108.084 16.274C108.644 16.274 109.106 16.092 109.47 15.728C109.843 15.3547 110.03 14.8787 110.03 14.3C110.03 13.7214 109.843 13.25 109.47 12.886C109.106 12.5127 108.644 12.326 108.084 12.326C107.524 12.326 107.062 12.5127 106.698 12.886C106.334 13.25 106.152 13.7214 106.152 14.3C106.152 14.8787 106.334 15.3547 106.698 15.728ZM117.4 10.8H119.332L116.784 17.8C116.074 19.7694 114.842 20.7027 113.088 20.6V18.92C113.564 18.9294 113.937 18.8407 114.208 18.654C114.488 18.4674 114.712 18.1547 114.88 17.716L112.052 10.8H113.97L115.846 15.504L117.4 10.8ZM124.783 10.8H126.589V17.8H124.783V15.14H121.997V17.8H120.191V10.8H121.997V13.446H124.783V10.8ZM133.76 10.8V12.536H131.576V17.8H129.77V12.536H127.558V10.8H133.76ZM140.415 16.932C139.696 17.6414 138.819 17.996 137.783 17.996C136.747 17.996 135.87 17.6414 135.151 16.932C134.442 16.2134 134.087 15.336 134.087 14.3C134.087 13.264 134.442 12.3914 135.151 11.682C135.87 10.9634 136.747 10.604 137.783 10.604C138.819 10.604 139.696 10.9634 140.415 11.682C141.134 12.3914 141.493 13.264 141.493 14.3C141.493 15.336 141.134 16.2134 140.415 16.932ZM136.425 15.686C136.789 16.05 137.242 16.232 137.783 16.232C138.324 16.232 138.777 16.05 139.141 15.686C139.505 15.322 139.687 14.86 139.687 14.3C139.687 13.74 139.505 13.278 139.141 12.914C138.777 12.55 138.324 12.368 137.783 12.368C137.242 12.368 136.789 12.55 136.425 12.914C136.07 13.278 135.893 13.74 135.893 14.3C135.893 14.86 136.07 15.322 136.425 15.686ZM147.804 14.216C148.457 14.5334 148.784 15.0654 148.784 15.812C148.784 16.4 148.578 16.8807 148.168 17.254C147.766 17.618 147.192 17.8 146.446 17.8H142.764V10.8H146.166C146.903 10.8 147.472 10.982 147.874 11.346C148.284 11.71 148.49 12.186 148.49 12.774C148.49 13.39 148.261 13.8707 147.804 14.216ZM145.998 12.284H144.458V13.544H145.998C146.511 13.544 146.768 13.334 146.768 12.914C146.768 12.494 146.511 12.284 145.998 12.284ZM146.236 16.274C146.758 16.274 147.02 16.05 147.02 15.602C147.02 15.406 146.95 15.252 146.81 15.14C146.67 15.028 146.478 14.972 146.236 14.972H144.458V16.274H146.236ZM153.078 13.04C153.871 13.04 154.511 13.2594 154.996 13.698C155.481 14.1274 155.724 14.7014 155.724 15.42C155.724 16.1387 155.481 16.7174 154.996 17.156C154.511 17.5854 153.871 17.8 153.078 17.8H149.914V10.8H151.72V13.04H153.078ZM156.494 10.8H158.3V17.8H156.494V10.8ZM153.092 16.204C153.344 16.204 153.549 16.134 153.708 15.994C153.876 15.8447 153.96 15.6534 153.96 15.42C153.96 15.1867 153.876 14.9954 153.708 14.846C153.549 14.6967 153.344 14.622 153.092 14.622H151.72V16.204H153.092ZM166.403 17.8H164.317L162.805 15.672L161.279 17.8H159.193L161.755 14.23L159.305 10.8H161.391L162.805 12.774L164.219 10.8H166.291L163.841 14.216L166.403 17.8ZM54.28 37.8H52.18L49.632 34.622V37.8H47.826V30.8H49.632V33.88L52.04 30.8H54.196L51.382 34.258L54.28 37.8ZM60.6396 36.932C59.9209 37.6414 59.0436 37.996 58.0076 37.996C56.9716 37.996 56.0943 37.6414 55.3756 36.932C54.6663 36.2134 54.3116 35.336 54.3116 34.3C54.3116 33.264 54.6663 32.3914 55.3756 31.682C56.0943 30.9634 56.9716 30.604 58.0076 30.604C59.0436 30.604 59.9209 30.9634 60.6396 31.682C61.3583 32.3914 61.7176 33.264 61.7176 34.3C61.7176 35.336 61.3583 36.2134 60.6396 36.932ZM56.6496 35.686C57.0136 36.05 57.4663 36.232 58.0076 36.232C58.5489 36.232 59.0016 36.05 59.3656 35.686C59.7296 35.322 59.9116 34.86 59.9116 34.3C59.9116 33.74 59.7296 33.278 59.3656 32.914C59.0016 32.55 58.5489 32.368 58.0076 32.368C57.4663 32.368 57.0136 32.55 56.6496 32.914C56.2949 33.278 56.1176 33.74 56.1176 34.3C56.1176 34.86 56.2949 35.322 56.6496 35.686ZM67.0621 30.604C68.0048 30.604 68.8074 30.9634 69.4701 31.682C70.1421 32.3914 70.4781 33.264 70.4781 34.3C70.4781 35.336 70.1421 36.2134 69.4701 36.932C68.8074 37.6414 68.0048 37.996 67.0621 37.996C66.0821 37.996 65.3261 37.6554 64.7941 36.974V40.6H62.9881V30.8H64.7941V31.626C65.3261 30.9447 66.0821 30.604 67.0621 30.604ZM65.3401 35.728C65.7041 36.092 66.1661 36.274 66.7261 36.274C67.2861 36.274 67.7481 36.092 68.1121 35.728C68.4854 35.3547 68.6721 34.8787 68.6721 34.3C68.6721 33.7214 68.4854 33.25 68.1121 32.886C67.7481 32.5127 67.2861 32.326 66.7261 32.326C66.1661 32.326 65.7041 32.5127 65.3401 32.886C64.9761 33.25 64.7941 33.7214 64.7941 34.3C64.7941 34.8787 64.9761 35.3547 65.3401 35.728ZM76.9943 30.8V32.536H74.8103V37.8H73.0043V32.536H70.7923V30.8H76.9943ZM83.6494 36.932C82.9307 37.6414 82.0534 37.996 81.0174 37.996C79.9814 37.996 79.104 37.6414 78.3854 36.932C77.676 36.2134 77.3214 35.336 77.3214 34.3C77.3214 33.264 77.676 32.3914 78.3854 31.682C79.104 30.9634 79.9814 30.604 81.0174 30.604C82.0534 30.604 82.9307 30.9634 83.6494 31.682C84.368 32.3914 84.7274 33.264 84.7274 34.3C84.7274 35.336 84.368 36.2134 83.6494 36.932ZM79.6594 35.686C80.0234 36.05 80.476 36.232 81.0174 36.232C81.5587 36.232 82.0114 36.05 82.3754 35.686C82.7394 35.322 82.9214 34.86 82.9214 34.3C82.9214 33.74 82.7394 33.278 82.3754 32.914C82.0114 32.55 81.5587 32.368 81.0174 32.368C80.476 32.368 80.0234 32.55 79.6594 32.914C79.3047 33.278 79.1274 33.74 79.1274 34.3C79.1274 34.86 79.3047 35.322 79.6594 35.686ZM91.0379 34.216C91.6912 34.5334 92.0179 35.0654 92.0179 35.812C92.0179 36.4 91.8125 36.8807 91.4019 37.254C91.0005 37.618 90.4265 37.8 89.6799 37.8H85.9979V30.8H89.3999C90.1372 30.8 90.7065 30.982 91.1079 31.346C91.5185 31.71 91.7239 32.186 91.7239 32.774C91.7239 33.39 91.4952 33.8707 91.0379 34.216ZM89.2319 32.284H87.6919V33.544H89.2319C89.7452 33.544 90.0019 33.334 90.0019 32.914C90.0019 32.494 89.7452 32.284 89.2319 32.284ZM89.4699 36.274C89.9925 36.274 90.2539 36.05 90.2539 35.602C90.2539 35.406 90.1839 35.252 90.0439 35.14C89.9039 35.028 89.7125 34.972 89.4699 34.972H87.6919V36.274H89.4699Z" fill="#333333"/>
</svg>
