<svg width="137" height="45" viewBox="0 0 137 45" fill="none" xmlns="http://www.w3.org/2000/svg">
<rect width="137" height="45" fill="#8D86C9"/>
<path d="M30.53 16.4V29H28.46V18.38H23.33V29H21.26V16.4H30.53ZM37.1769 29.234C35.8569 29.234 34.7349 28.778 33.8109 27.866C32.8869 26.954 32.4249 25.832 32.4249 24.5C32.4249 23.168 32.8869 22.046 33.8109 21.134C34.7349 20.222 35.8569 19.766 37.1769 19.766C38.5089 19.766 39.6309 20.222 40.5429 21.134C41.4669 22.046 41.9289 23.168 41.9289 24.5C41.9289 25.832 41.4669 26.954 40.5429 27.866C39.6309 28.778 38.5089 29.234 37.1769 29.234ZM35.1789 26.534C35.7189 27.074 36.3849 27.344 37.1769 27.344C37.9689 27.344 38.6349 27.074 39.1749 26.534C39.7149 25.994 39.9849 25.316 39.9849 24.5C39.9849 23.684 39.7149 23.006 39.1749 22.466C38.6349 21.926 37.9689 21.656 37.1769 21.656C36.3849 21.656 35.7189 21.926 35.1789 22.466C34.6389 23.006 34.3689 23.684 34.3689 24.5C34.3689 25.316 34.6389 25.994 35.1789 26.534ZM51.2552 27.164H52.4612V31.412H50.5532V29H44.3792V31.412H42.4712V27.164H43.5692C44.1212 26.384 44.3972 25.298 44.3972 23.906V20H51.2552V27.164ZM45.7112 27.164H49.3472V21.782H46.3052V23.906C46.3052 25.19 46.1072 26.276 45.7112 27.164ZM59.1343 19.766C60.3703 19.766 61.4263 20.228 62.3023 21.152C63.1783 22.064 63.6163 23.18 63.6163 24.5C63.6163 25.832 63.1783 26.954 62.3023 27.866C61.4263 28.778 60.3703 29.234 59.1343 29.234C57.7663 29.234 56.7163 28.73 55.9843 27.722V32.6H54.0403V20H55.9843V21.296C56.7163 20.276 57.7663 19.766 59.1343 19.766ZM56.7943 26.57C57.3343 27.11 58.0123 27.38 58.8283 27.38C59.6443 27.38 60.3223 27.11 60.8623 26.57C61.4023 26.018 61.6723 25.328 61.6723 24.5C61.6723 23.672 61.4023 22.988 60.8623 22.448C60.3223 21.896 59.6443 21.62 58.8283 21.62C58.0123 21.62 57.3343 21.896 56.7943 22.448C56.2543 22.988 55.9843 23.672 55.9843 24.5C55.9843 25.328 56.2543 26.018 56.7943 26.57ZM69.6261 29.234C68.3061 29.234 67.1841 28.778 66.2601 27.866C65.3361 26.954 64.8741 25.832 64.8741 24.5C64.8741 23.168 65.3361 22.046 66.2601 21.134C67.1841 20.222 68.3061 19.766 69.6261 19.766C70.9581 19.766 72.0801 20.222 72.9921 21.134C73.9161 22.046 74.3781 23.168 74.3781 24.5C74.3781 25.832 73.9161 26.954 72.9921 27.866C72.0801 28.778 70.9581 29.234 69.6261 29.234ZM67.6281 26.534C68.1681 27.074 68.8341 27.344 69.6261 27.344C70.4181 27.344 71.0841 27.074 71.6241 26.534C72.1641 25.994 72.4341 25.316 72.4341 24.5C72.4341 23.684 72.1641 23.006 71.6241 22.466C71.0841 21.926 70.4181 21.656 69.6261 21.656C68.8341 21.656 68.1681 21.926 67.6281 22.466C67.0881 23.006 66.8181 23.684 66.8181 24.5C66.8181 25.316 67.0881 25.994 67.6281 26.534ZM80.312 29.234C78.932 29.234 77.804 28.79 76.928 27.902C76.064 27.002 75.632 25.856 75.632 24.464C75.632 22.94 75.86 21.764 76.316 20.936C76.772 20.096 77.696 19.334 79.088 18.65C79.316 18.542 79.652 18.386 80.096 18.182C80.552 17.978 80.864 17.834 81.032 17.75C81.2 17.654 81.41 17.522 81.662 17.354C81.914 17.174 82.1 16.988 82.22 16.796C82.34 16.592 82.436 16.352 82.508 16.076L84.092 16.994C84.044 17.258 83.966 17.504 83.858 17.732C83.75 17.948 83.594 18.152 83.39 18.344C83.186 18.536 83.006 18.692 82.85 18.812C82.706 18.932 82.46 19.076 82.112 19.244C81.764 19.412 81.506 19.532 81.338 19.604C81.182 19.676 80.882 19.802 80.438 19.982C79.646 20.294 79.064 20.618 78.692 20.954C78.332 21.278 78.08 21.686 77.936 22.178C78.656 21.362 79.634 20.954 80.87 20.954C81.926 20.954 82.844 21.332 83.624 22.088C84.416 22.844 84.812 23.822 84.812 25.022C84.812 26.246 84.392 27.254 83.552 28.046C82.724 28.838 81.644 29.234 80.312 29.234ZM80.294 27.416C81.05 27.416 81.668 27.194 82.148 26.75C82.628 26.294 82.868 25.718 82.868 25.022C82.868 24.314 82.628 23.732 82.148 23.276C81.68 22.82 81.068 22.592 80.312 22.592C79.64 22.592 79.034 22.808 78.494 23.24C77.954 23.66 77.684 24.224 77.684 24.932C77.684 25.652 77.936 26.246 78.44 26.714C78.944 27.182 79.562 27.416 80.294 27.416ZM92.4148 20H94.3588V29H92.4148V25.418H88.2928V29H86.3488V20H88.2928V23.582H92.4148V20ZM98.1445 25.328C98.2885 26.012 98.6185 26.54 99.1345 26.912C99.6505 27.272 100.28 27.452 101.024 27.452C102.056 27.452 102.83 27.08 103.346 26.336L104.948 27.272C104.06 28.58 102.746 29.234 101.006 29.234C99.5425 29.234 98.3605 28.79 97.4605 27.902C96.5605 27.002 96.1105 25.868 96.1105 24.5C96.1105 23.156 96.5545 22.034 97.4425 21.134C98.3305 20.222 99.4705 19.766 100.862 19.766C102.182 19.766 103.262 20.228 104.102 21.152C104.954 22.076 105.38 23.198 105.38 24.518C105.38 24.722 105.356 24.992 105.308 25.328H98.1445ZM98.1265 23.744H103.418C103.286 23.012 102.98 22.46 102.5 22.088C102.032 21.716 101.48 21.53 100.844 21.53C100.124 21.53 99.5245 21.728 99.0445 22.124C98.5645 22.52 98.2585 23.06 98.1265 23.744ZM108.568 25.328C108.712 26.012 109.042 26.54 109.558 26.912C110.074 27.272 110.704 27.452 111.448 27.452C112.48 27.452 113.254 27.08 113.77 26.336L115.372 27.272C114.484 28.58 113.17 29.234 111.43 29.234C109.966 29.234 108.784 28.79 107.884 27.902C106.984 27.002 106.534 25.868 106.534 24.5C106.534 23.156 106.978 22.034 107.866 21.134C108.754 20.222 109.894 19.766 111.286 19.766C112.606 19.766 113.686 20.228 114.526 21.152C115.378 22.076 115.804 23.198 115.804 24.518C115.804 24.722 115.78 24.992 115.732 25.328H108.568ZM108.55 23.744H113.842C113.71 23.012 113.404 22.46 112.924 22.088C112.456 21.716 111.904 21.53 111.268 21.53C110.548 21.53 109.948 21.728 109.468 22.124C108.988 22.52 108.682 23.06 108.55 23.744Z" fill="white"/>
</svg>
