<svg width="197" height="13" viewBox="0 0 197 13" fill="none" xmlns="http://www.w3.org/2000/svg">
<path opacity="0.3" d="M0.504 10V8.936L3.962 5.408C4.886 4.484 5.348 3.69067 5.348 3.028C5.348 2.47733 5.18 2.048 4.844 1.74C4.508 1.432 4.09733 1.278 3.612 1.278C2.688 1.278 2.016 1.71667 1.596 2.594L0.504 1.95C0.812 1.31533 1.23667 0.834666 1.778 0.508C2.32867 0.181333 2.93533 0.0179992 3.598 0.0179992C4.41933 0.0179992 5.13333 0.288666 5.74 0.83C6.34667 1.37133 6.65 2.09933 6.65 3.014C6.65 4.00333 6.06667 5.08133 4.9 6.248L2.394 8.74H6.832V10H0.504ZM14.4421 8.796C13.7794 9.72 12.8508 10.182 11.6561 10.182C10.4614 10.182 9.53276 9.72 8.87009 8.796C8.20743 7.872 7.87609 6.64 7.87609 5.1C7.87609 3.56 8.20743 2.328 8.87009 1.404C9.53276 0.479999 10.4614 0.0179992 11.6561 0.0179992C12.8508 0.0179992 13.7794 0.479999 14.4421 1.404C15.1048 2.328 15.4361 3.56 15.4361 5.1C15.4361 6.64 15.1048 7.872 14.4421 8.796ZM9.82209 7.914C10.2514 8.57667 10.8628 8.908 11.6561 8.908C12.4494 8.908 13.0608 8.57667 13.4901 7.914C13.9288 7.25133 14.1481 6.31333 14.1481 5.1C14.1481 3.88667 13.9288 2.94867 13.4901 2.286C13.0608 1.614 12.4494 1.278 11.6561 1.278C10.8628 1.278 10.2514 1.60933 9.82209 2.272C9.39276 2.93467 9.17809 3.87733 9.17809 5.1C9.17809 6.31333 9.39276 7.25133 9.82209 7.914ZM16.3907 10V8.936L19.8487 5.408C20.7727 4.484 21.2347 3.69067 21.2347 3.028C21.2347 2.47733 21.0667 2.048 20.7307 1.74C20.3947 1.432 19.9841 1.278 19.4987 1.278C18.5747 1.278 17.9027 1.71667 17.4827 2.594L16.3907 1.95C16.6987 1.31533 17.1234 0.834666 17.6647 0.508C18.2154 0.181333 18.8221 0.0179992 19.4847 0.0179992C20.3061 0.0179992 21.0201 0.288666 21.6267 0.83C22.2334 1.37133 22.5367 2.09933 22.5367 3.014C22.5367 4.00333 21.9534 5.08133 20.7867 6.248L18.2807 8.74H22.7187V10H16.3907ZM23.7735 10V8.936L27.2315 5.408C28.1555 4.484 28.6175 3.69067 28.6175 3.028C28.6175 2.47733 28.4495 2.048 28.1135 1.74C27.7775 1.432 27.3669 1.278 26.8815 1.278C25.9575 1.278 25.2855 1.71667 24.8655 2.594L23.7735 1.95C24.0815 1.31533 24.5062 0.834666 25.0475 0.508C25.5982 0.181333 26.2049 0.0179992 26.8675 0.0179992C27.6889 0.0179992 28.4029 0.288666 29.0095 0.83C29.6162 1.37133 29.9195 2.09933 29.9195 3.014C29.9195 4.00333 29.3362 5.08133 28.1695 6.248L25.6635 8.74H30.1015V10H23.7735ZM43.3363 8.684C42.347 9.67333 41.1523 10.168 39.7523 10.168C38.3523 10.168 37.1577 9.67333 36.1683 8.684C35.179 7.69467 34.6843 6.5 34.6843 5.1C34.6843 3.7 35.179 2.50533 36.1683 1.516C37.1577 0.526667 38.3523 0.0319998 39.7523 0.0319998C41.1523 0.0319998 42.347 0.526667 43.3363 1.516C44.3257 2.50533 44.8203 3.7 44.8203 5.1C44.8203 6.5 44.3257 7.69467 43.3363 8.684ZM39.7523 9.748C41.0217 9.748 42.1043 9.29533 43.0003 8.39C43.9057 7.48467 44.3583 6.388 44.3583 5.1C44.3583 3.812 43.9057 2.71533 43.0003 1.81C42.1043 0.904666 41.0217 0.451999 39.7523 0.451999C38.4737 0.451999 37.3817 0.904666 36.4763 1.81C35.5803 2.71533 35.1323 3.812 35.1323 5.1C35.1323 6.388 35.5803 7.48467 36.4763 8.39C37.3817 9.29533 38.4737 9.748 39.7523 9.748ZM39.7943 7.802C39.029 7.802 38.3803 7.54067 37.8483 7.018C37.3163 6.486 37.0503 5.84667 37.0503 5.1C37.0503 4.35333 37.3163 3.71867 37.8483 3.196C38.3803 2.664 39.029 2.398 39.7943 2.398C40.289 2.398 40.7417 2.51467 41.1523 2.748C41.563 2.98133 41.8803 3.30333 42.1043 3.714L41.1383 4.274C40.8957 3.75133 40.443 3.49 39.7803 3.49C39.3043 3.49 38.917 3.64867 38.6183 3.966C38.329 4.28333 38.1843 4.66133 38.1843 5.1C38.1843 5.53867 38.329 5.91667 38.6183 6.234C38.917 6.55133 39.3043 6.71 39.7803 6.71C40.079 6.71 40.3543 6.64 40.6063 6.5C40.8583 6.36 41.0403 6.164 41.1523 5.912L42.1183 6.486C41.8943 6.88733 41.5723 7.20933 41.1523 7.452C40.7417 7.68533 40.289 7.802 39.7943 7.802ZM55.4859 4.918C55.9339 5.13267 56.2886 5.44067 56.5499 5.842C56.8206 6.24333 56.9559 6.70533 56.9559 7.228C56.9559 8.012 56.6806 8.67 56.1299 9.202C55.5793 9.734 54.9073 10 54.1139 10H49.8859V0.199999H53.8059C54.5713 0.199999 55.2199 0.456666 55.7519 0.969999C56.2839 1.48333 56.5499 2.118 56.5499 2.874C56.5499 3.742 56.1953 4.42333 55.4859 4.918ZM53.8059 1.418H51.1879V4.414H53.8059C54.2166 4.414 54.5619 4.26933 54.8419 3.98C55.1219 3.69067 55.2619 3.336 55.2619 2.916C55.2619 2.50533 55.1173 2.15533 54.8279 1.866C54.5479 1.56733 54.2073 1.418 53.8059 1.418ZM54.1139 8.782C54.5526 8.782 54.9213 8.628 55.2199 8.32C55.5186 8.012 55.6679 7.634 55.6679 7.186C55.6679 6.74733 55.5139 6.374 55.2059 6.066C54.9073 5.758 54.5433 5.604 54.1139 5.604H51.1879V8.782H54.1139ZM61.7042 10.182C60.6496 10.182 59.7722 9.832 59.0722 9.132C58.3722 8.42267 58.0222 7.54533 58.0222 6.5C58.0222 5.45467 58.3722 4.582 59.0722 3.882C59.7722 3.17267 60.6496 2.818 61.7042 2.818C62.3949 2.818 63.0156 2.986 63.5662 3.322C64.1169 3.64867 64.5276 4.092 64.7982 4.652L63.7762 5.24C63.5989 4.86667 63.3236 4.568 62.9502 4.344C62.5862 4.12 62.1709 4.008 61.7042 4.008C61.0042 4.008 60.4162 4.246 59.9402 4.722C59.4736 5.198 59.2402 5.79067 59.2402 6.5C59.2402 7.2 59.4736 7.788 59.9402 8.264C60.4162 8.74 61.0042 8.978 61.7042 8.978C62.1709 8.978 62.5909 8.87067 62.9642 8.656C63.3376 8.432 63.6222 8.13333 63.8182 7.76L64.8542 8.362C64.5556 8.91267 64.1262 9.356 63.5662 9.692C63.0062 10.0187 62.3856 10.182 61.7042 10.182ZM66.8151 7.06C66.9364 7.68533 67.2211 8.17067 67.6691 8.516C68.1264 8.86133 68.6864 9.034 69.3491 9.034C70.2731 9.034 70.9451 8.69333 71.3651 8.012L72.4011 8.6C71.7198 9.65467 70.6931 10.182 69.3211 10.182C68.2104 10.182 67.3051 9.83667 66.6051 9.146C65.9144 8.446 65.5691 7.564 65.5691 6.5C65.5691 5.44533 65.9098 4.568 66.5911 3.868C67.2724 3.168 68.1544 2.818 69.2371 2.818C70.2638 2.818 71.0991 3.182 71.7431 3.91C72.3964 4.62867 72.7231 5.49667 72.7231 6.514C72.7231 6.69133 72.7091 6.87333 72.6811 7.06H66.8151ZM69.2371 3.966C68.5838 3.966 68.0424 4.15267 67.6131 4.526C67.1838 4.89 66.9178 5.38 66.8151 5.996H71.4911C71.3884 5.33333 71.1271 4.82933 70.7071 4.484C70.2871 4.13867 69.7971 3.966 69.2371 3.966ZM83.6852 3V10H82.4672V4.162H78.8412V10H77.6232V3H83.6852ZM89.4032 2.818C90.3832 2.818 91.2186 3.17733 91.9092 3.896C92.5999 4.60533 92.9452 5.47333 92.9452 6.5C92.9452 7.52667 92.5999 8.39933 91.9092 9.118C91.2186 9.82733 90.3832 10.182 89.4032 10.182C88.2459 10.182 87.3639 9.72 86.7572 8.796V12.8H85.5392V3H86.7572V4.204C87.3639 3.28 88.2459 2.818 89.4032 2.818ZM89.2492 9.006C89.9492 9.006 90.5372 8.768 91.0132 8.292C91.4892 7.80667 91.7272 7.20933 91.7272 6.5C91.7272 5.79067 91.4892 5.198 91.0132 4.722C90.5372 4.23667 89.9492 3.994 89.2492 3.994C88.5399 3.994 87.9472 4.23667 87.4712 4.722C86.9952 5.198 86.7572 5.79067 86.7572 6.5C86.7572 7.20933 86.9952 7.80667 87.4712 8.292C87.9472 8.768 88.5399 9.006 89.2492 9.006ZM100.195 3H101.413V10H100.195V8.796C99.5879 9.72 98.7059 10.182 97.5486 10.182C96.5686 10.182 95.7333 9.82733 95.0426 9.118C94.3519 8.39933 94.0066 7.52667 94.0066 6.5C94.0066 5.47333 94.3519 4.60533 95.0426 3.896C95.7333 3.17733 96.5686 2.818 97.5486 2.818C98.7059 2.818 99.5879 3.28 100.195 4.204V3ZM97.7026 9.006C98.4119 9.006 99.0046 8.768 99.4806 8.292C99.9566 7.80667 100.195 7.20933 100.195 6.5C100.195 5.79067 99.9566 5.198 99.4806 4.722C99.0046 4.23667 98.4119 3.994 97.7026 3.994C97.0026 3.994 96.4146 4.23667 95.9386 4.722C95.4626 5.198 95.2246 5.79067 95.2246 6.5C95.2246 7.20933 95.4626 7.80667 95.9386 8.292C96.4146 8.768 97.0026 9.006 97.7026 9.006ZM107.92 6.402C108.639 6.70067 108.998 7.242 108.998 8.026C108.998 8.60467 108.802 9.08067 108.41 9.454C108.027 9.818 107.477 10 106.758 10H103.258V3H106.478C107.178 3 107.719 3.17733 108.102 3.532C108.485 3.87733 108.676 4.33467 108.676 4.904C108.676 5.576 108.424 6.07533 107.92 6.402ZM106.422 4.092H104.448V5.926H106.422C107.131 5.926 107.486 5.61333 107.486 4.988C107.486 4.39067 107.131 4.092 106.422 4.092ZM106.688 8.894C107.043 8.894 107.313 8.81 107.5 8.642C107.696 8.474 107.794 8.236 107.794 7.928C107.794 7.63867 107.696 7.41467 107.5 7.256C107.313 7.088 107.043 7.004 106.688 7.004H104.448V8.894H106.688ZM116.109 3H117.327V10H116.109V8.796C115.502 9.72 114.62 10.182 113.463 10.182C112.483 10.182 111.647 9.82733 110.957 9.118C110.266 8.39933 109.921 7.52667 109.921 6.5C109.921 5.47333 110.266 4.60533 110.957 3.896C111.647 3.17733 112.483 2.818 113.463 2.818C114.62 2.818 115.502 3.28 116.109 4.204V3ZM113.617 9.006C114.326 9.006 114.919 8.768 115.395 8.292C115.871 7.80667 116.109 7.20933 116.109 6.5C116.109 5.79067 115.871 5.198 115.395 4.722C114.919 4.23667 114.326 3.994 113.617 3.994C112.917 3.994 112.329 4.23667 111.853 4.722C111.377 5.198 111.139 5.79067 111.139 6.5C111.139 7.20933 111.377 7.80667 111.853 8.292C112.329 8.768 112.917 9.006 113.617 9.006ZM126.452 6.416C127.227 6.73333 127.614 7.28867 127.614 8.082C127.614 8.67 127.381 9.16933 126.914 9.58C126.447 9.98133 125.785 10.182 124.926 10.182C123.526 10.182 122.588 9.622 122.112 8.502L123.134 7.9C123.405 8.66533 124.007 9.048 124.94 9.048C125.407 9.048 125.766 8.95 126.018 8.754C126.279 8.54867 126.41 8.28733 126.41 7.97C126.41 7.69 126.303 7.46133 126.088 7.284C125.883 7.10667 125.603 7.018 125.248 7.018H124.226V5.912H124.982C125.337 5.912 125.612 5.828 125.808 5.66C126.004 5.48267 126.102 5.24467 126.102 4.946C126.102 4.64733 125.985 4.40467 125.752 4.218C125.528 4.03133 125.215 3.938 124.814 3.938C124.03 3.938 123.498 4.26933 123.218 4.932L122.224 4.358C122.719 3.33133 123.582 2.818 124.814 2.818C125.579 2.818 126.181 3.014 126.62 3.406C127.068 3.798 127.292 4.27867 127.292 4.848C127.292 5.55733 127.012 6.08 126.452 6.416ZM134.73 3H135.948V10H134.73V8.796C134.123 9.72 133.241 10.182 132.084 10.182C131.104 10.182 130.268 9.82733 129.578 9.118C128.887 8.39933 128.542 7.52667 128.542 6.5C128.542 5.47333 128.887 4.60533 129.578 3.896C130.268 3.17733 131.104 2.818 132.084 2.818C133.241 2.818 134.123 3.28 134.73 4.204V3ZM132.238 9.006C132.947 9.006 133.54 8.768 134.016 8.292C134.492 7.80667 134.73 7.20933 134.73 6.5C134.73 5.79067 134.492 5.198 134.016 4.722C133.54 4.23667 132.947 3.994 132.238 3.994C131.538 3.994 130.95 4.23667 130.474 4.722C129.998 5.198 129.76 5.79067 129.76 6.5C129.76 7.20933 129.998 7.80667 130.474 8.292C130.95 8.768 131.538 9.006 132.238 9.006ZM147.313 8.838H148.279V11.876H147.075V10H137.793V3H139.011V8.838H141.951V3H143.169V8.838H146.095V3H147.313V8.838ZM154.674 3H155.654V10H154.45V5.086L150.572 10H149.592V3H150.796V7.914L154.674 3ZM167.028 8.838H167.994V11.876H166.79V10H157.508V3H158.726V8.838H161.666V3H162.884V8.838H165.81V3H167.028V8.838ZM169.887 7.06C170.009 7.68533 170.293 8.17067 170.741 8.516C171.199 8.86133 171.759 9.034 172.421 9.034C173.345 9.034 174.017 8.69333 174.437 8.012L175.473 8.6C174.792 9.65467 173.765 10.182 172.393 10.182C171.283 10.182 170.377 9.83667 169.677 9.146C168.987 8.446 168.641 7.564 168.641 6.5C168.641 5.44533 168.982 4.568 169.663 3.868C170.345 3.168 171.227 2.818 172.309 2.818C173.336 2.818 174.171 3.182 174.815 3.91C175.469 4.62867 175.795 5.49667 175.795 6.514C175.795 6.69133 175.781 6.87333 175.753 7.06H169.887ZM172.309 3.966C171.656 3.966 171.115 4.15267 170.685 4.526C170.256 4.89 169.99 5.38 169.887 5.996H174.563C174.461 5.33333 174.199 4.82933 173.779 4.484C173.359 4.13867 172.869 3.966 172.309 3.966ZM182.039 3H183.257V10H182.039V7.074H178.413V10H177.195V3H178.413V5.912H182.039V3ZM188.066 5.52C188.766 5.52 189.344 5.73 189.802 6.15C190.268 6.56067 190.502 7.09733 190.502 7.76C190.502 8.42267 190.268 8.964 189.802 9.384C189.344 9.79467 188.766 10 188.066 10H185.111V3H186.33V5.52H188.066ZM191.412 3H192.63V10H191.412V3ZM188.066 8.866C188.411 8.866 188.7 8.768 188.934 8.572C189.176 8.36667 189.298 8.096 189.298 7.76C189.298 7.424 189.176 7.15333 188.934 6.948C188.7 6.74267 188.411 6.64 188.066 6.64H186.33V8.866H188.066ZM195.26 10.154C195.008 10.154 194.794 10.0653 194.616 9.888C194.439 9.71067 194.35 9.496 194.35 9.244C194.35 8.992 194.439 8.77733 194.616 8.6C194.794 8.42267 195.008 8.334 195.26 8.334C195.522 8.334 195.736 8.42267 195.904 8.6C196.082 8.77733 196.17 8.992 196.17 9.244C196.17 9.496 196.082 9.71067 195.904 9.888C195.736 10.0653 195.522 10.154 195.26 10.154Z" fill="#333333"/>
</svg>
